<?xml version="1.0" encoding="utf-8"?>
<svg version="1.1" xmlns:xlink="http://www.w3.org/1999/xlink" width="77px" height="77px" xmlns="http://www.w3.org/2000/svg">
  <g transform="matrix(1 0 0 1 -566 -1258 )">
    <path d="M 604.5 1259  C 625.5 1259  642 1275.5  642 1296.5  C 642 1317.5  625.5 1334  604.5 1334  C 583.5 1334  567 1317.5  567 1296.5  C 567 1275.5  583.5 1259  604.5 1259  Z " fill-rule="nonzero" fill="#932a33" stroke="none" />
    <path d="M 604.5 1259  C 625.5 1259  642 1275.5  642 1296.5  C 642 1317.5  625.5 1334  604.5 1334  C 583.5 1334  567 1317.5  567 1296.5  C 567 1275.5  583.5 1259  604.5 1259  Z " stroke-width="2" stroke="#932a33" fill="none" />
  </g>
</svg>