<?xml version="1.0" encoding="utf-8"?>
<svg version="1.1" xmlns:xlink="http://www.w3.org/1999/xlink" width="77px" height="77px" xmlns="http://www.w3.org/2000/svg">
  <g transform="matrix(1 0 0 1 -566 -1578 )">
    <path d="M 604.5 1587  C 621.02 1587  634 1599.98  634 1616.5  C 634 1633.02  621.02 1646  604.5 1646  C 587.98 1646  575 1633.02  575 1616.5  C 575 1599.98  587.98 1587  604.5 1587  Z " fill-rule="nonzero" fill="#932a33" stroke="none" />
    <path d="M 604.5 1583  C 623.26 1583  638 1597.74  638 1616.5  C 638 1635.26  623.26 1650  604.5 1650  C 585.74 1650  571 1635.26  571 1616.5  C 571 1597.74  585.74 1583  604.5 1583  Z " stroke-width="10" stroke="#932a33" fill="none" />
  </g>
</svg>